<svg width="18" height="18" viewBox="0 0 18 18" fill="none" xmlns="http://www.w3.org/2000/svg">
<path fill-rule="evenodd" clip-rule="evenodd" d="M9 16.6444C4.78489 16.6444 1.35556 13.2151 1.35556 9C1.35556 4.78489 4.78489 1.35556 9 1.35556C13.2151 1.35556 16.6444 4.78489 16.6444 9C16.6444 13.2151 13.2151 16.6444 9 16.6444ZM9 1C4.58898 1 1 4.58898 1 9C1 13.411 4.58898 17 9 17C13.411 17 17 13.411 17 9C17 4.58898 13.411 1 9 1Z" fill="#22C3CA"/>
<path d="M1.10556 9C1.10556 13.3532 4.64682 16.8944 9 16.8944V16.3944C4.92296 16.3944 1.60556 13.077 1.60556 9H1.10556ZM9 1.10556C4.64682 1.10556 1.10556 4.64682 1.10556 9H1.60556C1.60556 4.92296 4.92296 1.60556 9 1.60556V1.10556ZM16.8944 9C16.8944 4.64682 13.3532 1.10556 9 1.10556V1.60556C13.077 1.60556 16.3944 4.92296 16.3944 9H16.8944ZM9 16.8944C13.3532 16.8944 16.8944 13.3532 16.8944 9H16.3944C16.3944 13.077 13.077 16.3944 9 16.3944V16.8944ZM1.25 9C1.25 4.72705 4.72705 1.25 9 1.25V0.75C4.45091 0.75 0.75 4.45091 0.75 9H1.25ZM9 16.75C4.72705 16.75 1.25 13.273 1.25 9H0.75C0.75 13.5491 4.45091 17.25 9 17.25V16.75ZM16.75 9C16.75 13.273 13.273 16.75 9 16.75V17.25C13.5491 17.25 17.25 13.5491 17.25 9H16.75ZM9 1.25C13.273 1.25 16.75 4.72705 16.75 9H17.25C17.25 4.45091 13.5491 0.75 9 0.75V1.25Z" fill="#22C3CA"/>
</svg>
